# Blender v2.80 (sub 75) OBJ File: 'egg_hatched_1.blend'
# www.blender.org
mtllib egg_hatched_inner.mtl
g dragon_egg_hatched_egg_test2.002
v 0.187500 0.000000 -0.187500
v 0.187500 0.062500 -0.187500
v 0.187500 -0.000000 0.187500
v 0.187500 0.062500 0.187500
v -0.187500 -0.000000 0.187500
v -0.187500 0.062500 0.187500
v -0.187500 0.000000 -0.187500
v -0.187500 0.062500 -0.187500
v 0.375000 0.062500 -0.375000
v 0.375000 0.187500 -0.375000
v 0.375000 0.062500 0.375000
v 0.375000 0.187500 0.375000
v -0.375000 0.062500 0.375000
v -0.375000 0.187500 0.375000
v -0.375000 0.062500 -0.375000
v -0.375000 0.187500 -0.375000
v 0.375000 0.687500 -0.375000
v 0.375000 0.500000 -0.375000
v -0.375000 0.687500 -0.375000
v -0.375000 0.500000 0.375000
v -0.375000 0.687500 0.375000
v -0.375000 0.500000 -0.375000
v 0.375000 0.500000 0.375000
v 0.375000 0.687500 0.375000
v 0.437500 0.187500 -0.437500
v 0.437500 0.500000 -0.437500
v 0.437500 0.187500 0.437500
v 0.437500 0.500000 0.437500
v -0.437500 0.187500 0.437500
v -0.437500 0.500000 0.437500
v -0.437500 0.187500 -0.437500
v -0.437500 0.500000 -0.437500
v 0.125000 0.000000 -0.125000
v 0.125000 -0.000000 0.125000
v -0.125000 -0.000000 0.125000
v 0.312500 0.062500 -0.312500
v -0.312500 0.062500 0.312500
v 0.312500 0.062500 0.312500
v -0.312500 0.062500 -0.312500
v -0.125000 0.000000 -0.125000
vt 0.687500 0.000000
vt 0.687500 0.062500
vt 0.312500 0.000000
vt 0.312500 0.062500
vt 0.687500 0.000000
vt 0.687500 0.062500
vt 0.312500 0.000000
vt 0.312500 0.062500
vt 0.875000 0.062500
vt 0.875000 0.187500
vt 0.125000 0.062500
vt 0.125000 0.187500
vt 0.875000 0.062500
vt 0.875000 0.187500
vt 0.125000 0.062500
vt 0.125000 0.187500
vt 0.875000 0.687500
vt 0.875000 0.500000
vt 0.125000 0.687500
vt 0.875000 0.500000
vt 0.875000 0.687500
vt 0.125000 0.500000
vt 0.125000 0.500000
vt 0.125000 0.687500
vt 0.937500 0.187500
vt 0.937500 0.500000
vt 0.062500 0.187500
vt 0.062500 0.500000
vt 0.937500 0.187500
vt 0.937500 0.500000
vt 0.062500 0.187500
vt 0.062500 0.500000
vt 0.125000 0.250000
vt 0.875000 0.250000
vt 0.875000 0.250000
vt 0.875000 0.437500
vt 0.125000 0.437500
vt 0.125000 0.437500
vt 0.875000 0.437500
vt 0.125000 0.250000
vt 0.250000 0.750000
vt 0.250000 1.000000
vt -0.000000 1.000000
vt 0.812500 0.187500
vt 0.687500 0.687500
vt 0.687500 0.312500
vt 0.812500 0.125000
vt 0.187500 0.125000
vt 0.812500 0.125000
vt 0.187500 0.187500
vt 0.312500 0.312500
vt 0.812500 0.812500
vt 0.312500 0.687500
vt 0.187500 0.812500
vt 0.375000 0.062500
vt 0.625000 0.062500
vt 0.375000 0.062500
vt 0.187500 0.125000
vt 0.625000 0.062500
vt 0.000000 0.750000
vn 1.0000 0.0000 0.0000
vn 0.0000 -0.0000 1.0000
vn -1.0000 0.0000 0.0000
vn 0.0000 0.0000 -1.0000
vn 0.0000 -1.0000 -0.0000
vn -0.0000 1.0000 0.0000
usemtl Default_OBJ.003
s 1
f 1/1/1 2/2/1 3/3/1
f 3/3/2 4/4/2 5/5/2
f 5/5/3 6/6/3 7/7/3
f 2/2/4 1/1/4 8/8/4
f 9/9/1 10/10/1 11/11/1
f 11/11/2 12/12/2 13/13/2
f 13/13/3 14/14/3 15/15/3
f 10/10/4 9/9/4 16/16/4
f 17/17/4 18/18/4 19/19/4
f 20/20/3 21/21/3 22/22/3
f 23/23/2 24/24/2 20/20/2
f 18/18/1 17/17/1 23/23/1
f 25/25/1 26/26/1 27/27/1
f 27/27/2 28/28/2 29/29/2
f 29/29/3 30/30/3 31/31/3
f 26/26/4 25/25/4 32/32/4
f 2/2/1 4/4/1 3/3/1
f 4/4/2 6/6/2 5/5/2
f 6/6/3 8/8/3 7/7/3
f 1/1/4 7/7/4 8/8/4
f 25/25/5 12/33/5 10/34/5
f 10/10/1 12/12/1 11/11/1
f 12/12/2 14/14/2 13/13/2
f 14/14/3 16/16/3 15/15/3
f 9/9/4 15/15/4 16/16/4
f 18/18/4 22/22/4 19/19/4
f 21/21/3 19/19/3 22/22/3
f 24/24/2 21/21/2 20/20/2
f 17/17/1 24/24/1 23/23/1
f 14/35/5 27/27/5 29/29/5
f 26/26/1 28/28/1 27/27/1
f 28/28/2 30/30/2 29/29/2
f 30/30/3 32/32/3 31/31/3
f 25/25/4 31/31/4 32/32/4
f 32/32/6 20/36/6 22/37/6
f 30/30/6 23/38/6 20/36/6
f 26/26/6 22/37/6 18/39/6
f 28/28/6 18/39/6 23/38/6
f 16/40/5 29/29/5 31/31/5
f 31/31/5 10/34/5 16/40/5
f 25/25/5 27/27/5 12/33/5
f 14/35/5 12/33/5 27/27/5
f 32/32/6 30/30/6 20/36/6
f 30/30/6 28/28/6 23/38/6
f 26/26/6 32/32/6 22/37/6
f 28/28/6 26/26/6 18/39/6
f 16/40/5 14/35/5 29/29/5
f 31/31/5 25/25/5 10/34/5
f 33/41/5 34/42/5 35/43/5
f 36/44/5 4/45/5 2/46/5
f 15/15/5 37/47/5 13/13/5
f 37/47/5 11/11/5 13/13/5
f 38/48/5 9/9/5 11/11/5
f 36/49/5 15/15/5 9/9/5
f 39/50/5 2/46/5 8/51/5
f 38/52/5 6/53/5 4/45/5
f 37/54/5 8/51/5 6/53/5
f 34/55/5 1/1/5 3/3/5
f 35/56/5 5/5/5 7/7/5
f 35/56/5 3/3/5 5/5/5
f 40/57/5 7/7/5 1/1/5
f 15/15/5 39/58/5 37/47/5
f 36/49/5 39/58/5 15/15/5
f 38/48/5 36/49/5 9/9/5
f 37/47/5 38/48/5 11/11/5
f 36/44/5 38/52/5 4/45/5
f 39/50/5 36/44/5 2/46/5
f 37/54/5 39/50/5 8/51/5
f 38/52/5 37/54/5 6/53/5
f 40/57/5 1/1/5 33/59/5
f 35/56/5 7/7/5 40/57/5
f 35/56/5 34/55/5 3/3/5
f 34/55/5 33/59/5 1/1/5
f 33/41/5 35/43/5 40/60/5
