# Blender v2.80 (sub 75) OBJ File: 'egg_retex2.blend'
# www.blender.org
mtllib junk.mtl
o egg_test2.002
v 0.187500 0.000000 -0.187500
v 0.187500 -0.000000 0.187500
v -0.187500 0.000000 -0.187500
v 0.187500 0.062500 -0.187500
v 0.187500 0.062500 0.187500
v -0.187500 -0.000000 0.187500
v -0.187500 0.062500 0.187500
v -0.187500 0.062500 -0.187500
v 0.375000 0.062500 -0.375000
v 0.375000 0.187500 -0.375000
v 0.375000 0.062500 0.375000
v 0.375000 0.187500 0.375000
v -0.375000 0.062500 0.375000
v -0.375000 0.187500 0.375000
v -0.375000 0.062500 -0.375000
v -0.375000 0.187500 -0.375000
v 0.375000 0.687500 -0.375000
v 0.375000 0.500000 -0.375000
v -0.375000 0.687500 -0.375000
v -0.375000 0.500000 0.375000
v -0.375000 0.687500 0.375000
v -0.375000 0.500000 -0.375000
v 0.375000 0.500000 0.375000
v 0.375000 0.687500 0.375000
v 0.437500 0.187500 -0.437500
v 0.437500 0.500000 -0.437500
v 0.437500 0.187500 0.437500
v 0.437500 0.500000 0.437500
v -0.437500 0.187500 0.437500
v -0.437500 0.500000 0.437500
v -0.437500 0.187500 -0.437500
v -0.437500 0.500000 -0.437500
v 0.312500 0.812500 -0.312500
v 0.312500 0.687500 -0.312500
v -0.312500 0.812500 -0.312500
v -0.312500 0.687500 0.312500
v -0.312500 0.812500 0.312500
v -0.312500 0.687500 -0.312500
v 0.312500 0.687500 0.312500
v 0.312500 0.812500 0.312500
v 0.250000 0.875000 -0.250000
v 0.250000 0.812500 -0.250000
v -0.250000 0.875000 -0.250000
v -0.250000 0.812500 0.250000
v -0.250000 0.875000 0.250000
v -0.250000 0.812500 -0.250000
v 0.250000 0.812500 0.250000
v 0.250000 0.875000 0.250000
v 0.187500 0.937500 -0.187500
v 0.187500 0.875000 -0.187500
v -0.187500 0.937500 -0.187500
v -0.187500 0.875000 0.187500
v -0.187500 0.937500 0.187500
v -0.187500 0.875000 -0.187500
v 0.187500 0.875000 0.187500
v 0.187500 0.937500 0.187500
v 0.125000 1.000000 -0.125000
v 0.125000 0.937500 -0.125000
v -0.125000 1.000000 -0.125000
v -0.125000 0.937500 0.125000
v -0.125000 1.000000 0.125000
v -0.125000 0.937500 -0.125000
v 0.125000 0.937500 0.125000
v 0.125000 1.000000 0.125000
v 0.187500 0.937500 0.187500
v -0.187500 0.937500 0.187500
v -0.125000 0.937500 0.125000
v 0.125000 0.937500 0.125000
v -0.125000 0.000000 -0.125000
v -0.125000 -0.000000 0.125000
v 0.125000 0.000000 -0.125000
v 0.125000 -0.000000 0.125000
v -0.062500 1.000000 -0.062500
v -0.062500 1.000000 0.062500
v 0.062500 1.000000 -0.062500
v 0.062500 1.000000 0.062500
v -0.312500 0.062500 -0.312500
v -0.312500 0.062500 0.312500
v 0.312500 0.062500 -0.312500
v 0.312500 0.062500 0.312500
vt 0.687500 0.000000
vt 0.687500 0.062500
vt 0.312500 0.000000
vt 0.312500 0.062500
vt 0.687500 0.000000
vt 0.687500 0.062500
vt 0.312500 0.000000
vt 0.312500 0.062500
vt 0.875000 0.062500
vt 0.875000 0.187500
vt 0.125000 0.062500
vt 0.125000 0.187500
vt 0.875000 0.062500
vt 0.875000 0.187500
vt 0.125000 0.062500
vt 0.125000 0.187500
vt 0.875000 0.687500
vt 0.875000 0.500000
vt 0.125000 0.687500
vt 0.875000 0.500000
vt 0.875000 0.687500
vt 0.125000 0.500000
vt 0.125000 0.500000
vt 0.125000 0.687500
vt 0.937500 0.187500
vt 0.937500 0.500000
vt 0.062500 0.187500
vt 0.062500 0.500000
vt 0.937500 0.187500
vt 0.937500 0.500000
vt 0.062500 0.187500
vt 0.062500 0.500000
vt 0.812500 0.812500
vt 0.812500 0.687500
vt 0.187500 0.812500
vt 0.812500 0.687500
vt 0.812500 0.812500
vt 0.187500 0.687500
vt 0.187500 0.687500
vt 0.187500 0.812500
vt 0.750000 0.875000
vt 0.750000 0.812500
vt 0.250000 0.875000
vt 0.750000 0.812500
vt 0.750000 0.875000
vt 0.250000 0.812500
vt 0.250000 0.812500
vt 0.250000 0.875000
vt 0.687500 0.937500
vt 0.687500 0.875000
vt 0.312500 0.937500
vt 0.687500 0.875000
vt 0.687500 0.937500
vt 0.312500 0.875000
vt 0.312500 0.875000
vt 0.312500 0.937500
vt 0.625000 1.000000
vt 0.625000 0.937500
vt 0.375000 1.000000
vt 0.625000 0.937500
vt 0.625000 1.000000
vt 0.375000 0.937500
vt 0.375000 0.937500
vt 0.375000 1.000000
vt 0.125000 0.250000
vt 0.875000 0.250000
vt 0.875000 0.250000
vt 0.375000 0.875000
vt 0.625000 0.875000
vt 0.312500 0.875000
vt 0.687500 0.937500
vt 0.375000 0.875000
vt 0.625000 0.937500
vt 0.375000 0.937500
vt 0.625000 0.875000
vt 0.687500 0.812500
vt 0.312500 0.812500
vt 0.312500 0.812500
vt 0.250000 0.750000
vt 0.750000 0.750000
vt 0.187500 0.625000
vt 0.812500 0.625000
vt 0.250000 0.750000
vt 0.187500 0.625000
vt 0.875000 0.437500
vt 0.125000 0.437500
vt 0.125000 0.437500
vt 0.875000 0.437500
vt 0.687500 0.812500
vt 0.750000 0.750000
vt 0.812500 0.625000
vt 0.125000 0.250000
vt 0.250000 0.750000
vt 0.250000 1.000000
vt -0.000000 1.000000
vt 1.000000 0.875000
vt 0.875000 1.000000
vt 0.875000 0.875000
vt 0.812500 0.187500
vt 0.687500 0.687500
vt 0.687500 0.312500
vt 0.437500 0.937500
vt 0.562500 0.937500
vt 0.562500 0.937500
vt 0.437500 0.937500
vt 0.437500 0.937500
vt 1.000000 1.000000
vt 0.562500 0.937500
vt 0.437500 0.937500
vt 0.562500 0.937500
vt 0.812500 0.125000
vt 0.187500 0.125000
vt 0.812500 0.125000
vt 0.187500 0.187500
vt 0.312500 0.312500
vt 0.812500 0.812500
vt 0.312500 0.687500
vt 0.187500 0.812500
vt 0.375000 0.062500
vt 0.625000 0.062500
vt 0.375000 0.062500
vt 0.187500 0.125000
vt 0.625000 0.062500
vt 0.000000 0.750000
vn 1.0000 0.0000 0.0000
vn 0.0000 -0.0000 1.0000
vn -1.0000 0.0000 0.0000
vn 0.0000 0.0000 -1.0000
vn 0.0000 -1.0000 -0.0000
vn 0.0000 1.0000 0.0000
g egg_test2.002_egg_test2.002_Default_OBJ.003
usemtl Default_OBJ.003
s off
f 1/1/1 4/2/1 2/3/1
f 2/3/2 5/4/2 6/5/2
f 6/5/3 7/6/3 3/7/3
f 4/2/4 1/1/4 8/8/4
f 9/9/1 10/10/1 11/11/1
f 11/11/2 12/12/2 13/13/2
f 13/13/3 14/14/3 15/15/3
f 10/10/4 9/9/4 16/16/4
f 17/17/4 18/18/4 19/19/4
f 20/20/3 21/21/3 22/22/3
f 23/23/2 24/24/2 20/20/2
f 18/18/1 17/17/1 23/23/1
f 25/25/1 26/26/1 27/27/1
f 27/27/2 28/28/2 29/29/2
f 29/29/3 30/30/3 31/31/3
f 26/26/4 25/25/4 32/32/4
f 33/33/4 34/34/4 35/35/4
f 36/36/3 37/37/3 38/38/3
f 39/39/2 40/40/2 36/36/2
f 34/34/1 33/33/1 39/39/1
f 41/41/4 42/42/4 43/43/4
f 44/44/3 45/45/3 46/46/3
f 47/47/2 48/48/2 44/44/2
f 42/42/1 41/41/1 47/47/1
f 49/49/4 50/50/4 51/51/4
f 52/52/3 53/53/3 54/54/3
f 55/55/2 56/56/2 52/52/2
f 50/50/1 49/49/1 55/55/1
f 57/57/4 58/58/4 59/59/4
f 60/60/3 61/61/3 62/62/3
f 63/63/2 64/64/2 60/60/2
f 58/58/1 57/57/1 63/63/1
f 4/2/1 5/4/1 2/3/1
f 5/4/2 7/6/2 6/5/2
f 7/6/3 8/8/3 3/7/3
f 1/1/4 3/7/4 8/8/4
f 25/25/5 12/65/5 10/66/5
f 10/10/1 12/12/1 11/11/1
f 12/12/2 14/14/2 13/13/2
f 14/14/3 16/16/3 15/15/3
f 9/9/4 15/15/4 16/16/4
f 18/18/4 22/22/4 19/19/4
f 21/21/3 19/19/3 22/22/3
f 24/24/2 21/21/2 20/20/2
f 17/17/1 24/24/1 23/23/1
f 14/67/5 27/27/5 29/29/5
f 26/26/1 28/28/1 27/27/1
f 28/28/2 30/30/2 29/29/2
f 30/30/3 32/32/3 31/31/3
f 25/25/4 31/31/4 32/32/4
f 34/34/4 38/38/4 35/35/4
f 37/37/3 35/35/3 38/38/3
f 40/40/2 37/37/2 36/36/2
f 33/33/1 40/40/1 39/39/1
f 42/42/4 46/46/4 43/43/4
f 45/45/3 43/43/3 46/46/3
f 48/48/2 45/45/2 44/44/2
f 41/41/1 48/48/1 47/47/1
f 50/50/4 54/54/4 51/51/4
f 53/53/3 51/51/3 54/54/3
f 56/56/2 53/53/2 52/52/2
f 49/49/1 56/56/1 55/55/1
f 58/58/4 62/62/4 59/59/4
f 61/61/3 59/59/3 62/62/3
f 64/64/2 61/61/2 60/60/2
f 57/57/1 64/64/1 63/63/1
f 62/68/6 49/49/6 51/51/6
f 58/69/6 56/56/6 49/49/6
f 53/53/2 65/70/2 66/71/2
f 63/72/2 67/73/2 68/74/2
f 66/71/6 68/74/6 67/73/6
f 51/51/6 60/75/6 62/68/6
f 43/43/6 52/76/6 54/77/6
f 45/45/6 55/78/6 52/76/6
f 37/37/6 47/79/6 44/80/6
f 21/21/6 39/81/6 36/82/6
f 35/35/6 44/80/6 46/83/6
f 19/19/6 36/82/6 38/84/6
f 32/32/6 20/85/6 22/86/6
f 30/30/6 23/87/6 20/85/6
f 54/77/6 41/41/6 43/43/6
f 46/83/6 33/33/6 35/35/6
f 38/84/6 17/17/6 19/19/6
f 26/26/6 22/86/6 18/88/6
f 50/89/6 48/48/6 41/41/6
f 42/90/6 40/40/6 33/33/6
f 34/91/6 24/24/6 17/17/6
f 28/28/6 18/88/6 23/87/6
f 16/92/5 29/29/5 31/31/5
f 31/31/5 10/66/5 16/92/5
f 25/25/5 27/27/5 12/65/5
f 14/67/5 12/65/5 27/27/5
f 62/68/6 58/69/6 49/49/6
f 58/69/6 63/72/6 56/56/6
f 53/53/2 56/56/2 65/70/2
f 63/72/2 60/75/2 67/73/2
f 66/71/6 65/70/6 68/74/6
f 51/51/6 53/53/6 60/75/6
f 43/43/6 45/45/6 52/76/6
f 45/45/6 48/48/6 55/78/6
f 37/37/6 40/40/6 47/79/6
f 21/21/6 24/24/6 39/81/6
f 35/35/6 37/37/6 44/80/6
f 19/19/6 21/21/6 36/82/6
f 32/32/6 30/30/6 20/85/6
f 30/30/6 28/28/6 23/87/6
f 54/77/6 50/89/6 41/41/6
f 46/83/6 42/90/6 33/33/6
f 38/84/6 34/91/6 17/17/6
f 26/26/6 32/32/6 22/86/6
f 50/89/6 55/78/6 48/48/6
f 42/90/6 47/79/6 40/40/6
f 34/91/6 39/81/6 24/24/6
f 28/28/6 26/26/6 18/88/6
f 16/92/5 14/67/5 29/29/5
f 31/31/5 25/25/5 10/66/5
f 71/93/5 72/94/5 70/95/5
f 76/96/6 73/97/6 74/98/6
f 79/99/5 5/100/5 4/101/5
f 75/102/6 57/57/6 73/103/6
f 74/104/6 59/59/6 61/61/6
f 76/105/6 61/61/6 64/64/6
f 57/57/6 59/59/6 73/106/6
f 76/96/6 75/107/6 73/97/6
f 74/104/6 73/106/6 59/59/6
f 76/108/6 74/109/6 61/61/6
f 64/64/6 75/110/6 76/105/6
f 64/64/6 57/57/6 75/110/6
f 15/15/5 78/111/5 13/13/5
f 78/111/5 11/11/5 13/13/5
f 80/112/5 9/9/5 11/11/5
f 79/113/5 15/15/5 9/9/5
f 77/114/5 4/101/5 8/115/5
f 80/116/5 7/117/5 5/100/5
f 78/118/5 8/115/5 7/117/5
f 72/119/5 1/1/5 2/3/5
f 70/120/5 6/5/5 3/7/5
f 70/120/5 2/3/5 6/5/5
f 69/121/5 3/7/5 1/1/5
f 15/15/5 77/122/5 78/111/5
f 79/113/5 77/122/5 15/15/5
f 80/112/5 79/113/5 9/9/5
f 78/111/5 80/112/5 11/11/5
f 79/99/5 80/116/5 5/100/5
f 77/114/5 79/99/5 4/101/5
f 78/118/5 77/114/5 8/115/5
f 80/116/5 78/118/5 7/117/5
f 69/121/5 1/1/5 71/123/5
f 70/120/5 3/7/5 69/121/5
f 70/120/5 72/119/5 2/3/5
f 72/119/5 71/123/5 1/1/5
f 71/93/5 70/95/5 69/124/5
